<?xml version="1.0" encoding="iso-8859-1"?>
<!-- Generator: Adobe Illustrator 16.0.0, SVG Export Plug-In . SVG Version: 6.00 Build 0)  -->
<!DOCTYPE svg PUBLIC "-//W3C//DTD SVG 1.1//EN" "http://www.w3.org/Graphics/SVG/1.1/DTD/svg11.dtd">
<svg version="1.1" id="&#x5716;&#x5C64;_1" xmlns="http://www.w3.org/2000/svg" xmlns:xlink="http://www.w3.org/1999/xlink" x="0px"
	 y="0px" width="77.809px" height="77.808px" viewBox="0 0 77.809 77.808" style="enable-background:new 0 0 77.809 77.808;"
	 xml:space="preserve">
<path style="fill:#14A1BD;stroke:#FFFFFF;stroke-width:4;stroke-miterlimit:10;" d="M75.809,38.902
	c0,20.383-16.523,36.906-36.902,36.906S2,59.285,2,38.902C2,18.521,18.527,2,38.906,2S75.809,18.521,75.809,38.902z"/>
<g>
	<g>
		<path style="fill:#FFFFFF;stroke:#FFFFFF;stroke-width:4.75;stroke-miterlimit:10;" d="M38.877,60.724
			c-0.687,0-1.267-0.242-1.739-0.725c-0.474-0.48-0.71-1.057-0.71-1.725c0-0.725,0.236-1.316,0.71-1.781
			c0.473-0.463,1.053-0.695,1.739-0.695c0.705,0,1.299,0.232,1.781,0.695c0.482,0.465,0.724,1.057,0.724,1.781
			c0,0.668-0.236,1.244-0.71,1.725C40.199,60.482,39.601,60.724,38.877,60.724z M40.157,48.087h-2.644L37.18,17.083h3.312
			L40.157,48.087z"/>
	</g>
</g>
</svg>
