<?xml version="1.0" encoding="iso-8859-1"?>
<!-- Generator: Adobe Illustrator 16.0.0, SVG Export Plug-In . SVG Version: 6.00 Build 0)  -->
<!DOCTYPE svg PUBLIC "-//W3C//DTD SVG 1.1//EN" "http://www.w3.org/Graphics/SVG/1.1/DTD/svg11.dtd">
<svg version="1.1" id="&#x5716;&#x5C64;_1" xmlns="http://www.w3.org/2000/svg" xmlns:xlink="http://www.w3.org/1999/xlink" x="0px"
	 y="0px" width="36.094px" height="37.625px" viewBox="0 0 36.094 37.625" style="enable-background:new 0 0 36.094 37.625;"
	 xml:space="preserve">
<path style="fill:#666464;" d="M0,8.624v29.001h36.094V8.624H0z M18.047,34.576c-6.324,0-11.451-5.129-11.451-11.452
	c0-6.324,5.127-11.452,11.451-11.452c6.325,0,11.452,5.128,11.452,11.452C29.499,29.447,24.372,34.576,18.047,34.576z"/>
<path style="fill:#666464;" d="M31.732,2.166V0.89c0-0.491-0.597-0.89-1.333-0.89s-1.334,0.398-1.334,0.89v1.276h-22V0.89
	C7.065,0.398,6.468,0,5.732,0S4.399,0.398,4.399,0.89v1.276H0v4.792h36.094V2.166H31.732z"/>
<path style="fill:#666464;" d="M18.047,13.505c-5.312,0-9.618,4.307-9.618,9.619s4.306,9.619,9.618,9.619
	c5.313,0,9.619-4.308,9.619-9.619S23.36,13.505,18.047,13.505z M23.209,24.124h-5.162c-0.552,0-1-0.447-1-1v-7.058
	c0-0.552,0.448-1,1-1s1,0.448,1,1v6.058h4.162c0.552,0,1,0.448,1,1C24.209,23.677,23.762,24.124,23.209,24.124z"/>
</svg>
