<?xml version="1.0" encoding="iso-8859-1"?>
<!-- Generator: Adobe Illustrator 16.0.0, SVG Export Plug-In . SVG Version: 6.00 Build 0)  -->
<!DOCTYPE svg PUBLIC "-//W3C//DTD SVG 1.1//EN" "http://www.w3.org/Graphics/SVG/1.1/DTD/svg11.dtd">
<svg version="1.1" id="&#x5716;&#x5C64;_1" xmlns="http://www.w3.org/2000/svg" xmlns:xlink="http://www.w3.org/1999/xlink" x="0px"
	 y="0px" width="12.401px" height="12.401px" viewBox="0 0 12.401 12.401" style="enable-background:new 0 0 12.401 12.401;"
	 xml:space="preserve">
<circle style="fill:#555555;" cx="6.201" cy="6.201" r="6.201"/>
<g>
	<path style="stroke:#FFFFFF;stroke-width:0.9327;stroke-miterlimit:10;" d="M6.196,10.485c-0.135,0-0.249-0.047-0.342-0.142
		c-0.093-0.095-0.139-0.208-0.139-0.339c0-0.142,0.046-0.259,0.139-0.35c0.093-0.091,0.207-0.136,0.342-0.136
		c0.138,0,0.255,0.045,0.35,0.136c0.095,0.091,0.142,0.208,0.142,0.35c0,0.131-0.046,0.244-0.139,0.339
		C6.455,10.438,6.338,10.485,6.196,10.485z M6.447,8.004h-0.52L5.862,1.916h0.65L6.447,8.004z"/>
</g>
</svg>
