<?xml version="1.0" encoding="iso-8859-1"?>
<!-- Generator: Adobe Illustrator 16.0.0, SVG Export Plug-In . SVG Version: 6.00 Build 0)  -->
<!DOCTYPE svg PUBLIC "-//W3C//DTD SVG 1.1//EN" "http://www.w3.org/Graphics/SVG/1.1/DTD/svg11.dtd">
<svg version="1.1" id="&#x5716;&#x5C64;_1" xmlns="http://www.w3.org/2000/svg" xmlns:xlink="http://www.w3.org/1999/xlink" x="0px"
	 y="0px" width="191.23px" height="191.25px" viewBox="0 0 19.123 19.125" style="enable-background:new 0 0 19.123 19.125;"
	 xml:space="preserve">
<path style="fill:#666464;" d="M16.904,9.563l-0.25-2.033l1.881-1.3c-0.414-1.112-1.031-2.147-1.836-3.048l-1.945,1.189
	l-1.615-1.262l0.41-2.247C12.43,0.349,11.262,0.064,10.096,0L9.563,2.221l-2.035,0.25L6.229,0.589
	C5.117,1.002,4.082,1.619,3.18,2.425l1.189,1.946L3.107,5.982L0.861,5.574C0.348,6.692,0.064,7.86,0,9.026l2.219,0.536l0.248,2.031
	l-1.879,1.301c0.414,1.113,1.031,2.148,1.836,3.049l1.945-1.189l1.613,1.262l-0.41,2.246c1.119,0.514,2.285,0.799,3.451,0.863
	l0.537-2.221l2.033-0.248l1.301,1.881c1.111-0.414,2.146-1.031,3.047-1.836l-1.188-1.947l1.26-1.613l2.248,0.41
	c0.514-1.117,0.797-2.285,0.861-3.452L16.904,9.563z M14.65,12.21c-1.463,2.809-4.926,3.904-7.736,2.439
	c-2.811-1.463-3.902-4.926-2.441-7.736c1.463-2.811,4.926-3.902,7.736-2.439C15.02,5.937,16.113,9.4,14.65,12.21z"/>
<path style="fill:#666464;" d="M11.609,5.628C9.436,4.496,6.758,5.341,5.627,7.514s-0.287,4.853,1.887,5.984
	c2.174,1.134,4.854,0.284,5.984-1.886C14.629,9.438,13.783,6.757,11.609,5.628z M12.57,11.13c-0.864,1.659-2.912,2.308-4.574,1.442
	c-1.661-0.866-2.307-2.914-1.442-4.575s2.912-2.307,4.572-1.442C12.788,7.418,13.435,9.467,12.57,11.13z"/>
</svg>
