<?xml version="1.0" encoding="iso-8859-1"?>
<!-- Generator: Adobe Illustrator 16.0.0, SVG Export Plug-In . SVG Version: 6.00 Build 0)  -->
<!DOCTYPE svg PUBLIC "-//W3C//DTD SVG 1.1//EN" "http://www.w3.org/Graphics/SVG/1.1/DTD/svg11.dtd">
<svg version="1.1" id="&#x5716;&#x5C64;_1" xmlns="http://www.w3.org/2000/svg" xmlns:xlink="http://www.w3.org/1999/xlink" x="0px"
	 y="0px" width="47.892px" height="47.893px" viewBox="0 0 47.892 47.893" style="enable-background:new 0 0 47.892 47.893;"
	 xml:space="preserve">
<path style="fill:#404040;" d="M47.892,23.944c0,13.226-10.721,23.948-23.947,23.948C10.722,47.893,0,37.17,0,23.944
	C0,10.721,10.722,0,23.944,0C37.171,0,47.892,10.721,47.892,23.944z"/>
<g>
	<g>
		<polyline style="fill:none;stroke:#FFFFFF;stroke-width:1.3476;stroke-linecap:round;stroke-linejoin:round;" points="
			36.037,34.236 36.037,36.033 34.24,36.033 		"/>
		
			<line style="fill:none;stroke:#FFFFFF;stroke-width:1.3476;stroke-linecap:round;stroke-linejoin:round;stroke-dasharray:4.1172,4.1172;" x1="30.123" y1="36.033" x2="15.713" y2="36.033"/>
		<polyline style="fill:none;stroke:#FFFFFF;stroke-width:1.3476;stroke-linecap:round;stroke-linejoin:round;" points="
			13.654,36.033 11.857,36.033 11.857,34.236 		"/>
		
			<line style="fill:none;stroke:#FFFFFF;stroke-width:1.3476;stroke-linecap:round;stroke-linejoin:round;stroke-dasharray:4.1168,4.1168;" x1="11.857" y1="30.119" x2="11.857" y2="15.711"/>
		<polyline style="fill:none;stroke:#FFFFFF;stroke-width:1.3476;stroke-linecap:round;stroke-linejoin:round;" points="
			11.857,13.652 11.857,11.855 13.654,11.855 		"/>
		
			<line style="fill:none;stroke:#FFFFFF;stroke-width:1.3476;stroke-linecap:round;stroke-linejoin:round;stroke-dasharray:4.1172,4.1172;" x1="17.771" y1="11.855" x2="32.182" y2="11.855"/>
		<polyline style="fill:none;stroke:#FFFFFF;stroke-width:1.3476;stroke-linecap:round;stroke-linejoin:round;" points="
			34.24,11.855 36.037,11.855 36.037,13.652 		"/>
		
			<line style="fill:none;stroke:#FFFFFF;stroke-width:1.3476;stroke-linecap:round;stroke-linejoin:round;stroke-dasharray:4.1168,4.1168;" x1="36.037" y1="17.769" x2="36.037" y2="32.178"/>
	</g>
</g>
<circle style="fill:#FFFFFF;" cx="36.036" cy="36.036" r="2.957"/>
<circle style="fill:#FFFFFF;" cx="11.855" cy="11.856" r="2.958"/>
<path style="fill:#FFFFFF;" d="M23.948,17.175c-2.694,0-4.877,2.183-4.877,4.877c0,2.693,4.877,8.07,4.877,8.07
	s4.877-5.377,4.877-8.07C28.825,19.358,26.642,17.175,23.948,17.175z M23.948,24.958c-1.689,0-3.059-1.369-3.059-3.058
	c0-1.688,1.369-3.058,3.059-3.058c1.688,0,3.057,1.369,3.057,3.058C27.005,23.589,25.637,24.958,23.948,24.958z"/>
</svg>
