<?xml version="1.0" encoding="iso-8859-1"?>
<!-- Generator: Adobe Illustrator 16.0.0, SVG Export Plug-In . SVG Version: 6.00 Build 0)  -->
<!DOCTYPE svg PUBLIC "-//W3C//DTD SVG 1.1//EN" "http://www.w3.org/Graphics/SVG/1.1/DTD/svg11.dtd">
<svg version="1.1" id="&#x5716;&#x5C64;_1" xmlns="http://www.w3.org/2000/svg" xmlns:xlink="http://www.w3.org/1999/xlink" x="0px"
	 y="0px" width="47.892px" height="47.893px" viewBox="0 0 47.892 47.893" style="enable-background:new 0 0 47.892 47.893;"
	 xml:space="preserve">
<path style="fill:#FFFFFF;" d="M47.892,23.944c0,13.226-10.721,23.948-23.948,23.948C10.721,47.893,0,37.17,0,23.944
	C0,10.721,10.721,0,23.944,0C37.171,0,47.892,10.721,47.892,23.944z"/>
<polygon style="fill:none;" points="40.927,36.876 32.306,34.091 21.983,37.998 12.734,36.044 6.964,21.331 16.214,23.129 
	26.536,19.377 35.158,22.008 "/>
<polygon style="fill:#74C8D5;" points="40.927,36.876 32.306,34.091 21.983,37.998 12.734,36.044 6.964,21.331 16.214,23.128 
	26.536,19.377 35.158,22.007 "/>
<polygon style="fill:#5FA1AB;" points="16.214,23.128 26.536,19.377 32.306,34.091 21.983,37.998 "/>
<path d="M24.797,9.274c-3.982,0-7.209,3.227-7.209,7.208c0,3.983,7.209,11.941,7.209,11.941s7.209-7.958,7.209-11.941
	C32.007,12.501,28.778,9.274,24.797,9.274z"/>
<path style="fill:#E7283A;" d="M24.797,6.904c-4.969,0-8.995,4.025-8.995,8.993c0,4.969,8.995,14.898,8.995,14.898
	s8.995-9.93,8.995-14.898C33.792,10.929,29.764,6.904,24.797,6.904z M24.797,21.256c-3.117,0-5.639-2.525-5.639-5.64
	c0-3.112,2.522-5.638,5.639-5.638c3.115,0,5.637,2.526,5.637,5.638C30.434,18.731,27.912,21.256,24.797,21.256z"/>
</svg>
