<?xml version="1.0" encoding="iso-8859-1"?>
<!-- Generator: Adobe Illustrator 16.0.0, SVG Export Plug-In . SVG Version: 6.00 Build 0)  -->
<!DOCTYPE svg PUBLIC "-//W3C//DTD SVG 1.1//EN" "http://www.w3.org/Graphics/SVG/1.1/DTD/svg11.dtd">
<svg version="1.1" id="&#x5716;&#x5C64;_1" xmlns="http://www.w3.org/2000/svg" xmlns:xlink="http://www.w3.org/1999/xlink" x="0px"
	 y="0px" width="21.863px" height="28.927px" viewBox="0 0 21.863 28.927" style="enable-background:new 0 0 21.863 28.927;"
	 xml:space="preserve">
<g>
	<path style="fill:#063391;" d="M21.292,10.931c0,5.723-10.36,17.146-10.36,17.146S0.571,16.653,0.571,10.931
		c0-5.722,4.638-10.359,10.36-10.359C16.653,0.571,21.292,5.209,21.292,10.931z"/>
	<path style="fill:#FFFFFF;" d="M10.931,28.927l-0.423-0.466C10.079,27.987,0,16.806,0,10.931C0,4.903,4.904,0,10.931,0
		s10.932,4.903,10.932,10.931c0,5.875-10.08,17.057-10.509,17.53L10.931,28.927z M10.931,1.143c-5.398,0-9.79,4.391-9.79,9.788
		c0,4.796,7.86,14.079,9.79,16.285c1.93-2.207,9.789-11.491,9.789-16.285C20.72,5.533,16.329,1.143,10.931,1.143z"/>
</g>
</svg>
