<?xml version="1.0" encoding="iso-8859-1"?>
<!-- Generator: Adobe Illustrator 16.0.0, SVG Export Plug-In . SVG Version: 6.00 Build 0)  -->
<!DOCTYPE svg PUBLIC "-//W3C//DTD SVG 1.1//EN" "http://www.w3.org/Graphics/SVG/1.1/DTD/svg11.dtd">
<svg version="1.1" id="&#x5716;&#x5C64;_1" xmlns="http://www.w3.org/2000/svg" xmlns:xlink="http://www.w3.org/1999/xlink" x="0px"
	 y="0px" width="41.5px" height="54.781px" viewBox="0 0 41.5 54.781" style="enable-background:new 0 0 41.5 54.781;"
	 xml:space="preserve">
<path style="fill:#063391;stroke:#FFFFFF;stroke-width:2;stroke-miterlimit:10;" d="M-69.597,20.786
	c0,10.021-18.144,30.028-18.144,30.028s-18.145-20.007-18.145-30.028S-97.762,2.641-87.74,2.641
	C-77.72,2.641-69.597,10.765-69.597,20.786z"/>
<path style="fill:#FDCF00;stroke:#FFFFFF;stroke-width:2;stroke-miterlimit:10;" d="M-12.847,20.786
	c0,10.021-18.144,30.028-18.144,30.028s-18.145-20.007-18.145-30.028S-41.012,2.641-30.99,2.641
	C-20.97,2.641-12.847,10.765-12.847,20.786z"/>
<path style="stroke:#FFFFFF;stroke-width:2;stroke-miterlimit:10;" d="M38.903,20.786c0,10.021-18.144,30.028-18.144,30.028
	S2.615,30.807,2.615,20.786S10.738,2.641,20.76,2.641C30.78,2.641,38.903,10.765,38.903,20.786z"/>
<path style="fill:#E72F19;stroke:#FFFFFF;stroke-width:2;stroke-miterlimit:10;" d="M-126.097,20.785
	c0,10.021-18.144,30.028-18.144,30.028s-18.145-20.007-18.145-30.028c0-10.021,8.123-18.145,18.145-18.145
	C-134.22,2.641-126.097,10.765-126.097,20.785z"/>
<path style="fill:#48B134;stroke:#FFFFFF;stroke-width:2;stroke-miterlimit:10;" d="M-186.347,20.785
	c0,10.021-18.144,30.028-18.144,30.028s-18.145-20.007-18.145-30.028c0-10.021,8.123-18.145,18.145-18.145
	C-194.47,2.641-186.347,10.765-186.347,20.785z"/>
</svg>
