<?xml version="1.0" encoding="iso-8859-1"?>
<!-- Generator: Adobe Illustrator 16.0.0, SVG Export Plug-In . SVG Version: 6.00 Build 0)  -->
<!DOCTYPE svg PUBLIC "-//W3C//DTD SVG 1.1//EN" "http://www.w3.org/Graphics/SVG/1.1/DTD/svg11.dtd">
<svg version="1.1" id="&#x5716;&#x5C64;_1" xmlns="http://www.w3.org/2000/svg" xmlns:xlink="http://www.w3.org/1999/xlink" x="0px"
	 y="0px" width="12.401px" height="12.401px" viewBox="0 0 12.401 12.401" style="enable-background:new 0 0 12.401 12.401;"
	 xml:space="preserve">
<circle style="fill:#454545;" cx="6.201" cy="6.201" r="6.201"/>
<g>
	<path style="fill:#FFFFFF;" d="M9.447,3.917c0,0.664-0.176,1.179-0.528,1.546C8.732,5.65,8.267,5.939,7.525,6.33
		C7.291,6.455,7.138,6.568,7.068,6.669C6.99,6.763,6.951,6.936,6.951,7.185c0,0.445-0.234,0.667-0.703,0.667
		c-0.5,0-0.75-0.222-0.75-0.667V6.588c0-0.547,0.379-0.988,1.137-1.324c0.438-0.188,0.735-0.34,0.891-0.457
		c0.32-0.226,0.48-0.492,0.48-0.796c0-0.422-0.208-0.73-0.622-0.926C7.072,2.928,6.686,2.85,6.224,2.85
		c-0.468,0-0.843,0.11-1.125,0.329C4.92,3.311,4.678,3.604,4.373,4.057C4.178,4.354,3.943,4.501,3.67,4.501
		c-0.211,0-0.383-0.074-0.516-0.223C3.022,4.146,2.956,3.975,2.956,3.764c0-0.375,0.242-0.805,0.727-1.289
		c0.656-0.664,1.503-0.996,2.542-0.996c0.805,0,1.52,0.199,2.145,0.598C9.087,2.538,9.447,3.151,9.447,3.917z M7.419,9.904
		c0,0.304-0.121,0.558-0.363,0.761c-0.243,0.196-0.52,0.293-0.833,0.293c-0.312,0-0.589-0.102-0.832-0.305
		c-0.234-0.195-0.352-0.445-0.352-0.749c0-0.298,0.118-0.543,0.352-0.739c0.242-0.195,0.52-0.293,0.832-0.293
		c0.313,0,0.594,0.098,0.844,0.293C7.303,9.36,7.419,9.606,7.419,9.904z"/>
</g>
</svg>
