<?xml version="1.0" encoding="iso-8859-1"?>
<!-- Generator: Adobe Illustrator 16.0.0, SVG Export Plug-In . SVG Version: 6.00 Build 0)  -->
<!DOCTYPE svg PUBLIC "-//W3C//DTD SVG 1.1//EN" "http://www.w3.org/Graphics/SVG/1.1/DTD/svg11.dtd">
<svg version="1.1" id="&#x5716;&#x5C64;_1" xmlns="http://www.w3.org/2000/svg" xmlns:xlink="http://www.w3.org/1999/xlink" x="0px"
	 y="0px" width="85.215px" height="86px" viewBox="0 0 85.215 86" style="enable-background:new 0 0 85.215 86;"
	 xml:space="preserve">
<g>
	<line style="fill:none;stroke:#FFFFFF;stroke-width:3;stroke-miterlimit:10;" x1="42.608" y1="0" x2="42.608" y2="8.833"/>
	<line style="fill:none;stroke:#FFFFFF;stroke-width:3;stroke-miterlimit:10;" x1="27.901" y1="2.593" x2="30.923" y2="10.894"/>
	<line style="fill:none;stroke:#FFFFFF;stroke-width:3;stroke-miterlimit:10;" x1="14.969" y1="10.06" x2="20.646" y2="16.826"/>
	<line style="fill:none;stroke:#FFFFFF;stroke-width:3;stroke-miterlimit:10;" x1="5.369" y1="21.499" x2="13.019" y2="25.916"/>
	<line style="fill:none;stroke:#FFFFFF;stroke-width:3;stroke-miterlimit:10;" x1="0.261" y1="35.532" x2="8.959" y2="37.066"/>
	<line style="fill:none;stroke:#FFFFFF;stroke-width:3;stroke-miterlimit:10;" x1="0.261" y1="50.466" x2="8.959" y2="48.933"/>
	<line style="fill:none;stroke:#FFFFFF;stroke-width:3;stroke-miterlimit:10;" x1="5.368" y1="64.499" x2="13.018" y2="60.084"/>
	<line style="fill:none;stroke:#FFFFFF;stroke-width:3;stroke-miterlimit:10;" x1="14.967" y1="75.939" x2="20.645" y2="69.174"/>
	<line style="fill:none;stroke:#FFFFFF;stroke-width:3;stroke-miterlimit:10;" x1="27.899" y1="83.406" x2="30.921" y2="75.107"/>
	<line style="fill:none;stroke:#FFFFFF;stroke-width:3;stroke-miterlimit:10;" x1="42.605" y1="86" x2="42.607" y2="77.168"/>
	<line style="fill:none;stroke:#FFFFFF;stroke-width:3;stroke-miterlimit:10;" x1="57.313" y1="83.408" x2="54.294" y2="75.107"/>
	<line style="fill:none;stroke:#FFFFFF;stroke-width:3;stroke-miterlimit:10;" x1="70.246" y1="75.941" x2="64.57" y2="69.174"/>
	<line style="fill:none;stroke:#FFFFFF;stroke-width:3;stroke-miterlimit:10;" x1="79.846" y1="64.502" x2="72.197" y2="60.084"/>
	<line style="fill:none;stroke:#FFFFFF;stroke-width:3;stroke-miterlimit:10;" x1="84.954" y1="50.469" x2="76.256" y2="48.934"/>
	<line style="fill:none;stroke:#FFFFFF;stroke-width:3;stroke-miterlimit:10;" x1="84.954" y1="35.535" x2="76.256" y2="37.067"/>
	<line style="fill:none;stroke:#FFFFFF;stroke-width:3;stroke-miterlimit:10;" x1="79.847" y1="21.502" x2="72.197" y2="25.917"/>
	<line style="fill:none;stroke:#FFFFFF;stroke-width:3;stroke-miterlimit:10;" x1="70.248" y1="10.062" x2="64.57" y2="16.827"/>
	<line style="fill:none;stroke:#FFFFFF;stroke-width:3;stroke-miterlimit:10;" x1="57.315" y1="2.595" x2="54.294" y2="10.894"/>
</g>
</svg>
