<?xml version="1.0" encoding="iso-8859-1"?>
<!-- Generator: Adobe Illustrator 16.0.0, SVG Export Plug-In . SVG Version: 6.00 Build 0)  -->
<!DOCTYPE svg PUBLIC "-//W3C//DTD SVG 1.1//EN" "http://www.w3.org/Graphics/SVG/1.1/DTD/svg11.dtd">
<svg version="1.1" id="&#x5716;&#x5C64;_1" xmlns="http://www.w3.org/2000/svg" xmlns:xlink="http://www.w3.org/1999/xlink" x="0px"
	 y="0px" width="77.809px" height="77.808px" viewBox="0 0 77.809 77.808" style="enable-background:new 0 0 77.809 77.808;"
	 xml:space="preserve">
<path style="fill:#14A1BD;stroke:#FFFFFF;stroke-width:4;stroke-miterlimit:10;" d="M75.809,38.902
	c0,20.382-16.523,36.905-36.902,36.905S2,59.284,2,38.902S18.527,2,38.906,2S75.809,18.521,75.809,38.902z"/>
<g>
	<path style="fill:#FFFFFF;stroke:#FFFFFF;stroke-width:4.3464;stroke-miterlimit:10;" d="M37.212,47.767
		c-0.458-1.188-0.687-2.529-0.687-4.023c0-0.951,0.143-1.83,0.432-2.637s0.727-1.592,1.313-2.355s1.592-1.766,3.018-3.005
		c1.816-1.646,3.043-3.081,3.68-4.304s0.955-2.513,0.955-3.871c0-1.918-0.62-3.463-1.859-4.635c-1.238-1.172-2.92-1.757-5.042-1.757
		c-3.192,0-6.13,1.129-8.812,3.387v-3.056c2.563-1.935,5.518-2.903,8.862-2.903c2.835,0,5.14,0.781,6.914,2.343
		c1.774,1.563,2.661,3.676,2.661,6.341c0,1.104-0.165,2.118-0.496,3.043c-0.331,0.926-0.794,1.817-1.389,2.674
		c-0.594,0.858-1.629,2.008-3.105,3.451c-1.852,1.749-3.015,2.929-3.49,3.54c-0.475,0.611-0.811,1.205-1.006,1.783
		c-0.195,0.576-0.293,1.223-0.293,1.936c0,1.222,0.229,2.571,0.688,4.049H37.212z M38.256,59.201c-0.645,0-1.176-0.221-1.592-0.662
		c-0.416-0.44-0.623-0.968-0.623-1.579c0-0.662,0.207-1.205,0.623-1.63s0.947-0.636,1.592-0.636c0.646,0,1.188,0.211,1.631,0.636
		c0.441,0.425,0.662,0.968,0.662,1.63c0,0.611-0.217,1.139-0.65,1.579C39.467,58.98,38.918,59.201,38.256,59.201z"/>
</g>
</svg>
