<?xml version="1.0" encoding="iso-8859-1"?>
<!-- Generator: Adobe Illustrator 16.0.0, SVG Export Plug-In . SVG Version: 6.00 Build 0)  -->
<!DOCTYPE svg PUBLIC "-//W3C//DTD SVG 1.1//EN" "http://www.w3.org/Graphics/SVG/1.1/DTD/svg11.dtd">
<svg version="1.1" id="&#x5716;&#x5C64;_1" xmlns="http://www.w3.org/2000/svg" xmlns:xlink="http://www.w3.org/1999/xlink" x="0px"
	 y="0px" width="34.898px" height="27.162px" viewBox="0 0 34.898 27.162" style="enable-background:new 0 0 34.898 27.162;"
	 xml:space="preserve">
<g>
	<polygon points="5.685,24.34 0,24.34 0,7.286 5.685,7.286 5.685,9.18 1.895,9.18 1.895,22.445 5.685,22.445 	"/>
	<polygon points="34.898,24.34 29.214,24.34 29.214,22.445 33.004,22.445 33.004,9.18 29.214,9.18 29.214,7.286 34.898,7.286 	"/>
	<path d="M24.793,7.344c0-4.05-3.294-7.344-7.344-7.344s-7.344,3.294-7.344,7.344c0,3.724,2.798,6.776,6.396,7.247v12.572h1.895
		V14.59C21.995,14.12,24.793,11.068,24.793,7.344z M17.449,12.792c-3.004,0-5.449-2.444-5.449-5.448
		c0-3.005,2.445-5.449,5.449-5.449s5.449,2.444,5.449,5.449C22.898,10.347,20.453,12.792,17.449,12.792z"/>
</g>
</svg>
