<?xml version="1.0" encoding="iso-8859-1"?>
<!-- Generator: Adobe Illustrator 16.0.0, SVG Export Plug-In . SVG Version: 6.00 Build 0)  -->
<!DOCTYPE svg PUBLIC "-//W3C//DTD SVG 1.1//EN" "http://www.w3.org/Graphics/SVG/1.1/DTD/svg11.dtd">
<svg version="1.1" id="&#x5716;&#x5C64;_1" xmlns="http://www.w3.org/2000/svg" xmlns:xlink="http://www.w3.org/1999/xlink" x="0px"
	 y="0px" width="21.863px" height="28.927px" viewBox="0 0 21.863 28.927" style="enable-background:new 0 0 21.863 28.927;"
	 xml:space="preserve">
<g>
	<path d="M21.292,10.933c0,5.722-10.36,17.145-10.36,17.145S0.571,16.654,0.571,10.933c0-5.723,4.639-10.361,10.36-10.361
		S21.292,5.21,21.292,10.933z"/>
	<path style="fill:#FFFFFF;" d="M10.932,28.927l-0.423-0.466C10.08,27.987,0,16.807,0,10.933C0,4.904,4.904,0,10.932,0
		s10.932,4.904,10.932,10.933c0,5.874-10.08,17.055-10.509,17.528L10.932,28.927z M10.932,1.143c-5.397,0-9.789,4.392-9.789,9.79
		c0,4.795,7.859,14.077,9.789,16.283c1.93-2.206,9.789-11.49,9.789-16.283C20.721,5.534,16.329,1.143,10.932,1.143z"/>
</g>
</svg>
