<?xml version="1.0" encoding="iso-8859-1"?>
<!-- Generator: Adobe Illustrator 16.0.0, SVG Export Plug-In . SVG Version: 6.00 Build 0)  -->
<!DOCTYPE svg PUBLIC "-//W3C//DTD SVG 1.1//EN" "http://www.w3.org/Graphics/SVG/1.1/DTD/svg11.dtd">
<svg version="1.1" id="&#x5716;&#x5C64;_1" xmlns="http://www.w3.org/2000/svg" xmlns:xlink="http://www.w3.org/1999/xlink" x="0px"
	 y="0px" width="21.862px" height="28.928px" viewBox="0 0 21.862 28.928" style="enable-background:new 0 0 21.862 28.928;"
	 xml:space="preserve">
<g>
	<path style="fill:#48B134;" d="M21.292,10.933c0,5.722-10.36,17.146-10.36,17.146S0.571,16.654,0.571,10.933
		c0-5.723,4.638-10.361,10.36-10.361C16.653,0.571,21.292,5.21,21.292,10.933z"/>
	<path style="fill:#FFFFFF;" d="M10.931,28.928l-0.423-0.466C10.079,27.988,0,16.807,0,10.933C0,4.904,4.904,0,10.931,0
		s10.931,4.904,10.931,10.933c0,5.874-10.079,17.056-10.508,17.529L10.931,28.928z M10.931,1.143c-5.398,0-9.79,4.392-9.79,9.79
		c0,4.793,7.86,14.077,9.79,16.284c1.929-2.207,9.79-11.491,9.79-16.284C20.721,5.534,16.329,1.143,10.931,1.143z"/>
</g>
</svg>
