<?xml version="1.0" encoding="iso-8859-1"?>
<!-- Generator: Adobe Illustrator 16.0.0, SVG Export Plug-In . SVG Version: 6.00 Build 0)  -->
<!DOCTYPE svg PUBLIC "-//W3C//DTD SVG 1.1//EN" "http://www.w3.org/Graphics/SVG/1.1/DTD/svg11.dtd">
<svg version="1.1" id="&#x5716;&#x5C64;_1" xmlns="http://www.w3.org/2000/svg" xmlns:xlink="http://www.w3.org/1999/xlink" x="0px"
	 y="0px" width="21.862px" height="28.927px" viewBox="0 0 21.862 28.927" style="enable-background:new 0 0 21.862 28.927;"
	 xml:space="preserve">
<g>
	<path style="fill:#FDCF00;" d="M21.291,10.932c0,5.722-10.359,17.146-10.359,17.146S0.571,16.653,0.571,10.932
		c0-5.723,4.638-10.36,10.36-10.36C16.653,0.571,21.291,5.209,21.291,10.932z"/>
	<path style="fill:#FFFFFF;" d="M10.932,28.927l-0.423-0.466C10.08,27.987,0,16.806,0,10.932C0,4.904,4.904,0,10.932,0
		s10.931,4.904,10.931,10.932c0,5.874-10.079,17.056-10.508,17.529L10.932,28.927z M10.932,1.143c-5.397,0-9.789,4.392-9.789,9.789
		c0,4.793,7.859,14.077,9.789,16.284c1.93-2.207,9.788-11.491,9.788-16.284C20.72,5.534,16.329,1.143,10.932,1.143z"/>
</g>
</svg>
