<?xml version="1.0" encoding="iso-8859-1"?>
<!-- Generator: Adobe Illustrator 16.0.0, SVG Export Plug-In . SVG Version: 6.00 Build 0)  -->
<!DOCTYPE svg PUBLIC "-//W3C//DTD SVG 1.1//EN" "http://www.w3.org/Graphics/SVG/1.1/DTD/svg11.dtd">
<svg version="1.1" id="&#x5716;&#x5C64;_1" xmlns="http://www.w3.org/2000/svg" xmlns:xlink="http://www.w3.org/1999/xlink" x="0px"
	 y="0px" width="21.862px" height="28.929px" viewBox="0 0 21.862 28.929" style="enable-background:new 0 0 21.862 28.929;"
	 xml:space="preserve">
<g>
	<path style="fill:#E72F19;" d="M21.292,10.932c0,5.723-10.36,17.147-10.36,17.147S0.571,16.654,0.571,10.932
		c0-5.721,4.638-10.36,10.361-10.36C16.653,0.571,21.292,5.211,21.292,10.932z"/>
	<path style="fill:#FFFFFF;" d="M10.932,28.929l-0.423-0.466C10.08,27.989,0,16.807,0,10.932C0,4.904,4.904,0,10.932,0
		c6.027,0,10.931,4.904,10.931,10.932c0,5.875-10.079,17.058-10.508,17.531L10.932,28.929z M10.932,1.143
		c-5.398,0-9.79,4.392-9.79,9.789c0,4.796,7.86,14.08,9.79,16.286c1.929-2.207,9.789-11.492,9.789-16.286
		C20.721,5.534,16.329,1.143,10.932,1.143z"/>
</g>
</svg>
