<?xml version="1.0" encoding="iso-8859-1"?>
<!-- Generator: Adobe Illustrator 16.0.0, SVG Export Plug-In . SVG Version: 6.00 Build 0)  -->
<!DOCTYPE svg PUBLIC "-//W3C//DTD SVG 1.1//EN" "http://www.w3.org/Graphics/SVG/1.1/DTD/svg11.dtd">
<svg version="1.1" id="&#x5716;&#x5C64;_1" xmlns="http://www.w3.org/2000/svg" xmlns:xlink="http://www.w3.org/1999/xlink" x="0px"
	 y="0px" width="22.9476px" height="24.645px" viewBox="0 0 68.083 73.122" style="enable-background:new 0 0 68.083 73.122;"
	 xml:space="preserve">
<path style="fill:#767676;" d="M64.972,73.122H3.111C1.393,73.122,0,71.729,0,70.011v-66.9C0,1.393,1.393,0,3.111,0h61.861
	c1.718,0,3.111,1.393,3.111,3.111v66.9C68.083,71.729,66.69,73.122,64.972,73.122z M6.222,66.9h55.64V6.222H6.222V66.9z"/>
<path style="fill:#767676;" d="M54.393,17.708H13.69c-1.718,0-3.111-1.393-3.111-3.111s1.393-3.111,3.111-3.111h40.703
	c1.718,0,3.111,1.393,3.111,3.111S56.111,17.708,54.393,17.708z"/>
<g>
	<path style="fill:#767676;" d="M54.393,32.619H13.69c-1.718,0-3.111-1.393-3.111-3.111s1.393-3.111,3.111-3.111h40.703
		c1.718,0,3.111,1.393,3.111,3.111S56.111,32.619,54.393,32.619z"/>
</g>
<g>
	<path style="fill:#767676;" d="M54.393,47.53H13.69c-1.718,0-3.111-1.393-3.111-3.111s1.393-3.111,3.111-3.111h40.703
		c1.718,0,3.111,1.393,3.111,3.111S56.111,47.53,54.393,47.53z"/>
</g>
<g>
	<path style="fill:#767676;" d="M54.393,62.441H13.69c-1.718,0-3.111-1.393-3.111-3.111s1.393-3.111,3.111-3.111h40.703
		c1.718,0,3.111,1.393,3.111,3.111S56.111,62.441,54.393,62.441z"/>
</g>
</svg>
